<svg width="239" height="357" viewBox="0 0 239 357" fill="none" xmlns="http://www.w3.org/2000/svg">
<path d="M237.504 178.733C237.504 227.875 224.206 272.342 202.734 304.509C181.259 336.68 151.646 356.5 119.004 356.5C86.3618 356.5 56.7491 336.68 35.2741 304.509C13.8013 272.342 0.503906 227.875 0.503906 178.733C0.503906 129.592 13.8013 85.1245 35.2741 52.9575C56.7491 20.787 86.3618 0.966797 119.004 0.966797C151.646 0.966797 181.259 20.787 202.734 52.9575C224.206 85.1245 237.504 129.592 237.504 178.733Z" stroke="#765AA7"/>
<path d="M80.1381 33.4718C80.1613 33.447 80.2094 33.4703 80.2822 33.5416C80.355 33.6129 80.3798 33.661 80.3566 33.6857C79.8914 34.1811 79.707 34.7374 79.8032 35.3545C79.8873 35.9598 80.251 36.5774 80.8944 37.2073L90.3081 46.424C90.3445 46.4596 90.3398 46.5144 90.2938 46.5882C90.2478 46.662 90.201 46.6994 90.1535 46.7004L72.0495 45.6975L79.4604 52.9532C80.1037 53.5831 80.7174 53.9344 81.3015 54.0071C81.8856 54.0798 82.4102 53.8684 82.8753 53.373C82.8986 53.3483 82.9466 53.3715 83.0195 53.4428C83.0923 53.5141 83.1171 53.5622 83.0938 53.587C82.7799 53.9214 82.5354 54.1693 82.3605 54.3308L81.4179 55.2976L80.407 56.4115C80.2331 56.6216 79.9717 56.9124 79.6229 57.2839C79.588 57.3211 79.5341 57.304 79.4613 57.2327C79.3884 57.1614 79.3695 57.1072 79.4044 57.07C79.9044 56.5375 80.1181 55.9624 80.0457 55.3447C79.9849 54.7147 79.6328 54.0847 78.9894 53.4548L71.0141 45.6465C70.3244 45.6367 69.7729 45.703 69.3598 45.8452C68.9583 45.975 68.618 46.1886 68.339 46.4858C68.3157 46.5106 68.2677 46.4873 68.1948 46.416C68.122 46.3447 68.0972 46.2967 68.1205 46.2719L68.8364 45.5466C68.9997 45.3975 69.2209 45.1743 69.4999 44.8771L70.598 43.6703C70.7254 43.5098 70.8879 43.3242 71.0856 43.1137C71.1786 43.0146 71.2727 42.9641 71.3678 42.9621C71.4628 42.9601 71.6297 42.9808 71.8684 43.0244C72.3453 43.0872 72.6848 43.1225 72.8871 43.1304L86.8692 44.0197L80.4234 37.7089C79.7801 37.079 79.1663 36.7277 78.5822 36.655C77.986 36.5704 77.4612 36.7696 77.0077 37.2527C76.9844 37.2774 76.9364 37.2542 76.8635 37.1829C76.7907 37.1115 76.7659 37.0635 76.7892 37.0387L77.5225 36.2949C77.9189 35.9223 78.2392 35.606 78.4834 35.3459C78.7159 35.0982 79.0177 34.7519 79.3888 34.307L80.1381 33.4718Z" fill="#765AA7"/>
<path d="M104.057 36.9696C104.103 36.9478 104.159 36.9682 104.225 37.0309C104.291 37.0936 104.308 37.1514 104.276 37.2041L101.927 40.0977L101.845 40.1646C101.692 40.2375 101.476 40.1331 101.198 39.8513C100.914 39.5541 100.63 39.1153 100.347 38.5352C99.8431 40.2977 98.9929 41.4633 97.796 42.032C96.9674 42.4257 96.2067 42.4768 95.514 42.1854C94.8142 41.8785 94.26 41.2767 93.8515 40.3801L92.2772 36.9249C91.7982 35.8737 91.3209 35.4611 90.8452 35.6871C90.6918 35.76 90.5051 35.9239 90.2853 36.1788L90.2623 36.1897C90.2009 36.2189 90.1373 36.2021 90.0713 36.1394C90.0054 36.0767 89.9885 36.0189 90.0204 35.9661L92.3202 33.2091L92.4017 33.1422C92.463 33.113 92.5462 33.1111 92.6511 33.1365C92.756 33.1619 92.819 33.1978 92.8401 33.2442L95.2385 38.5081C96.0203 40.2241 97.0557 40.7759 98.3446 40.1634C98.7282 39.9812 99.0773 39.7025 99.3917 39.3274C99.7061 38.9524 99.9505 38.526 100.125 38.0482L98.3076 34.0597C98.061 33.5186 97.82 33.1536 97.5846 32.9645C97.3574 32.7528 97.1211 32.7052 96.8756 32.8219C96.7375 32.8875 96.5508 33.0514 96.3157 33.3136L96.2926 33.3245C96.2313 33.3537 96.1676 33.3369 96.1017 33.2742C96.0288 33.196 96.0195 33.1346 96.0738 33.09L98.3505 30.3439C98.3742 30.3139 98.409 30.2879 98.455 30.266C98.5164 30.2369 98.5996 30.235 98.7045 30.2604C98.8093 30.2857 98.8724 30.3216 98.8935 30.368L101.757 36.6522C102.003 37.1933 102.23 37.5466 102.436 37.712C102.642 37.8773 102.867 37.9017 103.113 37.7851C103.297 37.6976 103.6 37.4408 104.022 37.0147L104.057 36.9696Z" fill="#765AA7"/>
<path d="M126.155 35.8235C126.223 35.8196 126.26 35.8685 126.265 35.9703C126.271 36.0721 126.24 36.1249 126.172 36.1288C125.748 36.1533 125.408 36.1644 125.153 36.1621L123.702 36.2204L122.253 36.3295C121.999 36.3611 121.661 36.3892 121.237 36.4136C121.186 36.4166 121.158 36.3672 121.152 36.2654C121.146 36.1636 121.169 36.1113 121.22 36.1083C121.779 36.076 122.154 35.9353 122.345 35.686C122.534 35.4199 122.61 34.9475 122.573 34.269L122.363 30.4779C122.31 29.528 122.102 28.8339 121.737 28.3955C121.39 27.9561 120.877 27.756 120.198 27.7951C119.74 27.8215 119.288 27.9582 118.843 28.2052C118.397 28.4521 118.015 28.7719 117.696 29.1647L117.71 29.4191L117.993 34.5333C118.032 35.2288 118.151 35.6898 118.351 35.9165C118.567 36.1423 118.964 36.2385 119.541 36.2052C119.592 36.2023 119.62 36.2517 119.625 36.3535C119.631 36.4553 119.608 36.5076 119.558 36.5105C119.134 36.535 118.794 36.5461 118.539 36.5438L117.062 36.6035L115.613 36.7127C115.359 36.7443 115.021 36.7724 114.597 36.7968C114.546 36.7998 114.518 36.7503 114.512 36.6486C114.506 36.5468 114.529 36.4944 114.58 36.4915C115.157 36.4582 115.532 36.3175 115.705 36.0692C115.895 35.82 115.971 35.3477 115.933 34.6522L115.723 30.8611C115.67 29.9112 115.462 29.2171 115.097 28.7786C114.75 28.3393 114.237 28.1391 113.558 28.1783C113.134 28.2028 112.707 28.3295 112.278 28.5585C111.848 28.7875 111.473 29.0814 111.153 29.4402L111.455 34.9106C111.494 35.6061 111.613 36.0671 111.813 36.2939C112.012 36.5206 112.4 36.6173 112.977 36.584C113.028 36.5811 113.056 36.6305 113.062 36.7323C113.068 36.834 113.045 36.8864 112.994 36.8893C112.57 36.9138 112.239 36.9244 112 36.9211L110.524 36.9808L109.049 37.0914C108.813 37.1221 108.483 37.1497 108.059 37.1741C108.008 37.1771 107.979 37.1277 107.974 37.0259C107.968 36.9241 107.991 36.8717 108.042 36.8688C108.618 36.8355 108.993 36.6948 109.167 36.4465C109.34 36.1983 109.408 35.7264 109.369 35.031L109.1 30.1713C109.07 29.6285 108.98 29.2338 108.831 28.9871C108.698 28.7396 108.487 28.6241 108.199 28.6407C107.944 28.6554 107.528 28.8071 106.948 29.0958L106.923 29.0973C106.855 29.1012 106.801 29.0617 106.763 28.9788C106.724 28.896 106.73 28.8446 106.78 28.8247L110.022 27.004C110.122 26.9642 110.181 26.9438 110.198 26.9428C110.367 26.933 110.548 27.1183 110.739 27.4987C110.946 27.8611 111.075 28.3471 111.126 28.9568C112.185 27.5003 113.385 26.7334 114.725 26.6561C115.505 26.611 116.143 26.7699 116.64 27.1326C117.135 27.4784 117.462 28.0125 117.622 28.7351C118.743 27.1729 119.991 26.3522 121.365 26.2729C122.263 26.221 122.965 26.4443 123.469 26.9427C123.989 27.4232 124.278 28.1893 124.336 29.241L124.608 34.1516C124.646 34.847 124.766 35.3081 124.965 35.5348C125.182 35.7606 125.579 35.8568 126.155 35.8235Z" fill="#765AA7"/>
<path d="M138.49 30.1014C139.197 30.3429 139.793 30.7346 140.277 31.2768C140.777 31.8243 141.092 32.4976 141.224 33.2964C141.372 34.1007 141.287 34.9873 140.97 35.956C140.59 37.1185 140.016 38.0264 139.248 38.6797C138.496 39.3384 137.649 39.7405 136.708 39.8859C135.767 40.0313 134.846 39.9503 133.945 39.643C132.691 39.215 131.688 38.4595 130.934 37.3765L128.575 37.6213L128.527 37.6049C128.462 37.5829 128.433 37.5369 128.438 37.4668C128.437 37.4129 128.467 37.378 128.526 37.3622C129.049 37.2359 129.466 37.0281 129.775 36.7387C130.106 36.4387 130.371 35.982 130.572 35.3684L134.449 23.5257C134.634 22.9606 134.71 22.5378 134.676 22.2572C134.648 21.9605 134.498 21.7654 134.224 21.6721C134.031 21.6063 133.686 21.5961 133.189 21.6417L133.164 21.6335C133.1 21.6115 133.065 21.5547 133.059 21.463C133.054 21.3713 133.072 21.3148 133.115 21.2935L136.99 20.8393L137.119 20.8562C137.183 20.8782 137.245 20.9352 137.304 21.0272C137.363 21.1192 137.385 21.1894 137.369 21.2379L134.286 30.6588C134.996 30.2909 135.693 30.0443 136.378 29.919C137.062 29.7936 137.766 29.8544 138.49 30.1014ZM134.731 39.3727C135.519 39.6416 136.238 39.4922 136.889 38.9245C137.539 38.3567 138.078 37.419 138.506 36.1112C138.972 34.6904 139.063 33.537 138.781 32.651C138.521 31.7543 137.964 31.1606 137.112 30.8697C136.292 30.5898 135.302 30.6648 134.143 31.0947L132.93 34.8001C132.655 35.6396 132.583 36.378 132.714 37.015C132.862 37.6576 133.121 38.1768 133.492 38.5726C133.884 38.9578 134.297 39.2245 134.731 39.3727Z" fill="#765AA7"/>
<path d="M150.632 47.1931C150.66 47.2131 150.668 47.261 150.656 47.3367C150.658 47.4224 150.636 47.4692 150.589 47.4769C149.764 47.5893 149.019 47.5713 148.356 47.4232C147.702 47.2611 147.073 46.9596 146.47 46.5186C145.619 45.8973 145.012 45.1803 144.648 44.3676C144.308 43.551 144.187 42.7163 144.287 41.8636C144.41 41.007 144.72 40.2239 145.217 39.5142C145.792 38.6933 146.518 38.0873 147.393 37.6961C148.282 37.315 149.213 37.1851 150.186 37.3066C151.182 37.4242 152.105 37.7937 152.955 38.415C153.765 39.0063 154.257 39.6501 154.433 40.3464C154.619 41.0289 154.487 41.6901 154.039 42.3302C153.776 42.7058 153.569 42.8385 153.418 42.7283L152.286 41.9016L148.388 39.1173C148.143 39.3794 147.903 39.6775 147.669 40.0114C146.821 41.2219 146.418 42.3894 146.46 43.5137C146.525 44.6342 147.051 45.5552 148.039 46.2768C148.396 46.5373 148.793 46.7542 149.232 46.9274C149.68 47.0866 150.129 47.1721 150.577 47.1839L150.632 47.1931ZM151.922 38.2913C151.47 37.9606 150.962 37.8419 150.398 37.9354C149.835 38.0288 149.28 38.3176 148.734 38.8018L151.988 41.0841C152.36 40.4936 152.548 39.9582 152.553 39.4778C152.558 38.9974 152.348 38.6019 151.922 38.2913Z" fill="#765AA7"/>
<path d="M164.375 50.2512C164.618 50.5567 164.753 50.9303 164.78 51.3722C164.807 51.814 164.683 52.149 164.409 52.3772C164.16 52.5837 163.894 52.6724 163.611 52.6435C163.337 52.6278 163.095 52.4871 162.883 52.2216C162.745 52.0489 162.661 51.8757 162.631 51.7018C162.625 51.5304 162.639 51.3306 162.674 51.1024C162.697 50.8851 162.697 50.7083 162.675 50.5718C162.666 50.4246 162.608 50.2845 162.503 50.1517C162.386 50.0057 162.2 49.8952 161.945 49.8204C161.713 49.7479 161.283 49.6858 160.655 49.6339L156.424 53.1545C156.058 53.4587 155.82 53.7454 155.709 54.0147C155.611 54.273 155.623 54.5609 155.746 54.8784C155.869 55.1959 156.127 55.6004 156.519 56.0917C156.561 56.1448 156.543 56.204 156.465 56.2692C156.386 56.3344 156.326 56.3404 156.284 56.2873C155.934 55.8491 155.66 55.4917 155.461 55.2153L154.225 53.6254L153.284 52.4864C153.122 52.3113 152.909 52.0578 152.644 51.7258C152.612 51.686 152.636 51.6335 152.714 51.5683C152.792 51.5031 152.847 51.4904 152.879 51.5303C153.239 51.9817 153.569 52.2045 153.869 52.1984C154.168 52.1924 154.585 51.9666 155.121 51.5211L158.862 48.408C159.28 48.0603 159.545 47.7518 159.656 47.4826C159.778 47.2267 159.748 46.9858 159.568 46.7601C159.409 46.5609 159.046 46.3104 158.48 46.0086L158.464 45.9887C158.421 45.9356 158.422 45.8686 158.466 45.7877C158.51 45.7068 158.555 45.6808 158.6 45.7098L161.935 47.2761C162.025 47.334 162.075 47.3696 162.086 47.3829C162.192 47.5157 162.154 47.768 161.973 48.1399C161.805 48.5008 161.502 48.8848 161.067 49.2916C162.054 49.3314 162.797 49.4316 163.295 49.5921C163.792 49.7527 164.152 49.9724 164.375 50.2512Z" fill="#765AA7"/>
<path d="M75.9872 158.345C72.5286 158.345 69.4419 157.545 66.7271 155.946C64.0494 154.31 61.9669 152.116 60.4793 149.364C59.0289 146.574 58.3037 143.543 58.3037 140.271C58.3037 136.44 59.2706 133.168 61.2045 130.453C63.1383 127.701 65.6114 125.637 68.6237 124.261C71.6732 122.885 74.7785 122.197 77.9396 122.197C81.4726 122.197 84.5779 123.034 87.2555 124.707C89.9331 126.343 91.9785 128.519 93.3917 131.234C94.8421 133.949 95.5673 136.831 95.5673 139.88C95.5673 143.264 94.6747 146.37 92.8897 149.196C91.1046 152.023 88.7059 154.254 85.6936 155.89C82.7184 157.527 79.483 158.345 75.9872 158.345ZM77.8838 157.006C80.1152 157.006 82.1048 156.411 83.8527 155.221C85.6378 153.994 87.0324 152.208 88.0365 149.866C89.0778 147.523 89.5984 144.733 89.5984 141.498C89.5984 138.077 89.022 135.008 87.8691 132.294C86.7534 129.579 85.1357 127.459 83.0159 125.934C80.9333 124.41 78.4789 123.647 75.6525 123.647C72.0451 123.647 69.2373 124.949 67.2291 127.552C65.2581 130.118 64.2726 133.688 64.2726 138.263C64.2726 141.796 64.849 144.994 66.0019 147.857C67.1919 150.721 68.8097 152.971 70.8551 154.607C72.9377 156.206 75.2806 157.006 77.8838 157.006Z" fill="#765AA7"/>
<path d="M140.651 160.284C140.726 160.284 140.763 160.396 140.763 160.619C140.763 160.842 140.726 160.953 140.651 160.953C139.164 160.953 138.011 161.493 137.193 162.571C136.375 163.612 135.965 165.119 135.965 167.09V195.93C135.965 196.041 135.872 196.116 135.687 196.153C135.501 196.19 135.37 196.172 135.296 196.097L109.133 165.695V188.399C109.133 190.37 109.524 191.876 110.305 192.918C111.086 193.959 112.22 194.48 113.708 194.48C113.782 194.48 113.819 194.591 113.819 194.814C113.819 195.037 113.782 195.149 113.708 195.149C112.704 195.149 111.941 195.13 111.421 195.093L108.464 195.037L105.173 195.093C104.578 195.13 103.722 195.149 102.607 195.149C102.495 195.149 102.439 195.037 102.439 194.814C102.439 194.591 102.495 194.48 102.607 194.48C104.206 194.48 105.433 193.959 106.288 192.918C107.181 191.876 107.627 190.37 107.627 188.399V163.966C106.586 162.85 105.638 162.069 104.782 161.623C103.964 161.177 103.109 160.953 102.216 160.953C102.142 160.953 102.105 160.842 102.105 160.619C102.105 160.396 102.142 160.284 102.216 160.284L104.448 160.34C104.931 160.377 105.619 160.396 106.512 160.396L110.082 160.34C110.528 160.303 111.067 160.284 111.699 160.284C111.997 160.284 112.22 160.358 112.369 160.507C112.518 160.656 112.741 160.953 113.038 161.4C113.671 162.255 114.135 162.85 114.433 163.185L134.459 186.837V167.09C134.459 165.119 134.069 163.612 133.288 162.571C132.507 161.493 131.391 160.953 129.941 160.953C129.866 160.953 129.829 160.842 129.829 160.619C129.829 160.396 129.866 160.284 129.941 160.284L132.228 160.34C133.418 160.414 134.403 160.451 135.184 160.451C135.928 160.451 136.932 160.414 138.197 160.34L140.651 160.284Z" fill="#765AA7"/>
<path d="M174.065 231.414C174.065 231.34 174.14 231.303 174.289 231.303C174.4 231.303 174.493 231.34 174.567 231.414C174.679 231.452 174.735 231.489 174.735 231.526C174.363 234.352 174.177 236.937 174.177 239.28C174.177 239.577 174.121 239.801 174.01 239.949C173.898 240.061 173.675 240.117 173.34 240.117H149.13C149.018 240.117 148.963 240.005 148.963 239.782C148.963 239.559 149.018 239.447 149.13 239.447C150.394 239.447 151.306 239.354 151.863 239.168C152.458 238.982 152.849 238.629 153.035 238.108C153.258 237.551 153.37 236.714 153.37 235.598V209.77C153.37 208.655 153.258 207.836 153.035 207.316C152.849 206.795 152.458 206.442 151.863 206.256C151.268 206.033 150.357 205.921 149.13 205.921C149.018 205.921 148.963 205.81 148.963 205.587C148.963 205.363 149.018 205.252 149.13 205.252H172.336C172.708 205.252 172.894 205.419 172.894 205.754L173.005 213.006C173.005 213.08 172.894 213.136 172.671 213.173C172.485 213.21 172.373 213.173 172.336 213.062C171.444 208.822 168.859 206.702 164.582 206.702H162.351C161.012 206.702 160.064 206.944 159.506 207.427C158.948 207.911 158.669 208.729 158.669 209.882V221.262H164.024C168.115 221.262 170.161 219.886 170.161 217.134C170.161 217.022 170.253 216.966 170.439 216.966C170.663 216.966 170.774 217.022 170.774 217.134L170.718 221.987L170.774 224.609C170.849 225.799 170.886 226.766 170.886 227.51C170.886 227.584 170.774 227.621 170.551 227.621C170.328 227.621 170.216 227.584 170.216 227.51C170.216 224.311 168.134 222.712 163.969 222.712H158.669V235.375C158.669 236.602 158.892 237.458 159.338 237.941C159.822 238.425 160.659 238.666 161.849 238.666H164.582C169.565 238.666 172.727 236.249 174.065 231.414Z" fill="#765AA7"/>
<g clip-path="url(#clip0_188_5308)">
<path d="M78.4321 235.807C79.2947 236.665 80.3589 237.282 81.5224 237.598C82.6859 237.914 83.9095 237.919 85.0755 237.613C84.7359 239.138 84.8937 240.734 85.5247 242.159C86.1557 243.584 87.2255 244.759 88.571 245.505C89.9166 246.252 91.4642 246.529 92.9781 246.294C94.492 246.059 95.8893 245.326 96.9571 244.205C98.3062 242.789 99.0604 241.022 99.2111 239.258C99.3222 237.963 99.2799 236.659 99.0851 235.375C98.4546 231.215 98.2926 226.938 99.1858 222.798C95.1593 223.826 90.9681 223.779 86.88 223.251C85.6171 223.088 84.3396 223.081 83.0751 223.229C81.3527 223.432 79.6446 224.251 78.2971 225.666C77.6537 226.341 77.1468 227.138 76.8054 228.013C76.464 228.888 76.2947 229.823 76.3073 230.765C76.3198 231.707 76.5139 232.637 76.8785 233.502C77.2431 234.367 77.771 235.151 78.4321 235.807Z" fill="#765AA7"/>
</g>
<g clip-path="url(#clip1_188_5308)">
<path d="M186.485 153.101C185.738 152.249 184.788 151.608 183.727 151.24C182.666 150.871 181.53 150.787 180.429 150.996C180.838 149.603 180.79 148.11 180.293 146.747C179.795 145.383 178.874 144.223 177.671 143.444C176.468 142.664 175.048 142.307 173.628 142.428C172.208 142.548 170.865 143.139 169.804 144.111C168.464 145.339 167.655 146.931 167.406 148.559C167.223 149.754 167.182 150.967 167.283 152.173C167.612 156.075 167.498 160.057 166.413 163.843C170.215 163.148 174.103 163.462 177.867 164.215C179.029 164.448 180.215 164.537 181.398 164.48C183.01 164.403 184.646 163.753 185.985 162.526C186.624 161.941 187.143 161.233 187.514 160.442C187.885 159.652 188.1 158.795 188.147 157.92C188.193 157.044 188.071 156.168 187.786 155.342C187.501 154.515 187.059 153.753 186.485 153.101Z" fill="#765AA7"/>
</g>
<path d="M87.6504 333.434C87.671 333.455 87.6505 333.497 87.5889 333.56C87.5273 333.623 87.4862 333.644 87.4656 333.623C87.1258 333.277 86.858 332.994 86.6623 332.774L85.5654 331.626L84.4687 330.542C84.273 330.363 84.0053 330.101 83.6654 329.756C83.6448 329.735 83.6653 329.693 83.7269 329.629C83.7885 329.566 83.8296 329.545 83.8502 329.566C84.3033 330.027 84.6584 330.284 84.9156 330.336C85.1727 330.388 85.4654 330.246 85.7939 329.909L86.0401 329.626L92.2585 322.623L81.3015 327.13C81.2399 327.151 81.1782 327.13 81.1164 327.067C81.0649 327.015 81.0391 326.946 81.0389 326.862L84.7819 315.139L78.7929 320.992C78.2387 321.539 77.926 322.07 77.8549 322.584C77.7941 323.109 77.9851 323.597 78.4279 324.048C78.4588 324.079 78.4435 324.127 78.3819 324.19C78.3203 324.253 78.2741 324.269 78.2432 324.237C77.9652 323.954 77.754 323.729 77.6098 323.561L76.7756 322.681L75.8487 321.769C75.684 321.622 75.4626 321.407 75.1845 321.124C75.1536 321.093 75.169 321.045 75.2305 320.982C75.2921 320.919 75.3384 320.903 75.3693 320.935C75.7915 321.365 76.2596 321.548 76.7735 321.484C77.2978 321.43 77.837 321.13 78.3913 320.583L85.15 313.942C85.2931 313.417 85.3283 312.96 85.2556 312.572C85.1933 312.194 85.018 311.858 84.7296 311.565C84.6987 311.533 84.7141 311.486 84.7756 311.423C84.8372 311.36 84.8835 311.344 84.9144 311.375L85.5632 312.067C85.6868 312.214 85.8568 312.397 86.0731 312.618L86.8145 313.341C86.9072 313.414 87.0153 313.514 87.1389 313.639C87.2727 313.776 87.3296 313.938 87.3093 314.127C87.2993 314.306 87.2125 314.658 87.0489 315.183L83.8432 325.409L93.9373 321.344C94.1428 321.26 94.3072 321.228 94.4306 321.249C94.5643 321.259 94.6826 321.317 94.7856 321.422C94.8577 321.495 94.9452 321.595 95.0483 321.721C95.1513 321.846 95.2852 321.993 95.45 322.161L96.2995 322.994C96.4437 323.12 96.6496 323.319 96.9174 323.591C96.938 323.612 96.9175 323.654 96.8559 323.717C96.7944 323.781 96.7533 323.802 96.7327 323.781C96.2383 323.278 95.7855 323.005 95.3742 322.964C94.9835 322.923 94.5931 323.123 94.2032 323.564L87.5231 331.135C87.2256 331.482 87.0307 331.755 86.9385 331.955C86.8566 332.165 86.8672 332.375 86.9704 332.585C87.0736 332.794 87.3002 333.077 87.6504 333.434Z" fill="#765AA7"/>
<path d="M100.521 337.545C100.575 337.568 100.595 337.617 100.58 337.691C100.572 337.751 100.535 337.783 100.47 337.787L97.9724 337.895C97.9072 337.899 97.8408 337.887 97.7732 337.858C97.5841 337.777 97.4462 337.59 97.3596 337.298C97.273 337.005 97.2711 336.661 97.3539 336.265L96.0659 336.386C95.1151 336.459 94.3626 336.377 93.8086 336.141C93.3761 335.956 93.0828 335.703 92.9287 335.382C92.7936 335.052 92.8068 334.691 92.9683 334.296C93.1409 333.875 93.4177 333.625 93.7985 333.548C94.1849 333.458 94.8555 333.448 95.8102 333.521L98.3288 333.71L98.997 332.078C99.3367 331.248 99.4898 330.603 99.4566 330.141C99.4289 329.666 99.2258 329.348 98.8474 329.186C98.1177 328.874 97.4788 329.233 96.9308 330.261C96.5848 330.912 96.101 331.105 95.4794 330.839C94.8983 330.591 94.7108 330.215 94.9168 329.712C95.0616 329.359 95.4226 329.098 95.9998 328.929C96.5961 328.752 97.2524 328.681 97.9687 328.715C98.6905 328.736 99.2947 328.85 99.7812 329.058C100.389 329.317 100.798 329.715 101.007 330.252C101.235 330.781 101.196 331.419 100.889 332.167L99.4111 335.777C99.2384 336.199 99.1752 336.547 99.2212 336.823C99.2672 337.098 99.4186 337.29 99.6754 337.4C99.8781 337.486 100.146 337.529 100.48 337.528L100.521 337.545ZM97.447 335.921C97.4557 335.861 97.4907 335.756 97.552 335.606L98.1951 334.036L96.5388 333.952C96.1317 333.938 95.8205 333.98 95.605 334.08C95.3951 334.166 95.2428 334.325 95.1482 334.556C95.0312 334.842 95.0204 335.101 95.1158 335.333C95.2111 335.565 95.3872 335.736 95.6439 335.846C95.9277 335.967 96.2815 336.015 96.7052 335.988L97.447 335.921Z" fill="#765AA7"/>
<path d="M114.85 340.362C114.893 340.367 114.911 340.413 114.903 340.5C114.895 340.588 114.869 340.63 114.826 340.626C114.46 340.591 114.168 340.556 113.95 340.521L112.701 340.38L111.053 340.246C110.803 340.237 110.466 340.212 110.042 340.172C110.013 340.169 110.002 340.124 110.01 340.036C110.018 339.948 110.037 339.906 110.066 339.908C110.666 339.965 110.98 339.84 111.008 339.533C111.02 339.401 110.974 339.249 110.872 339.077L108.612 335.453L107.902 335.961L107.702 338.156C107.648 338.756 107.692 339.166 107.834 339.387C107.991 339.608 108.318 339.742 108.815 339.79C108.874 339.795 108.899 339.842 108.891 339.93C108.883 340.017 108.85 340.059 108.791 340.053C108.426 340.018 108.134 339.983 107.916 339.948L106.667 339.807L105.414 339.71C105.193 339.704 104.9 339.684 104.534 339.649C104.491 339.645 104.473 339.599 104.481 339.511C104.489 339.423 104.515 339.381 104.558 339.386C105.041 339.431 105.38 339.36 105.574 339.172C105.769 338.969 105.894 338.575 105.947 337.99L106.968 326.773C107.015 326.261 106.997 325.89 106.914 325.661C106.833 325.417 106.676 325.284 106.442 325.262C106.222 325.241 105.914 325.3 105.518 325.44L105.496 325.438C105.452 325.433 105.412 325.393 105.374 325.315C105.353 325.225 105.365 325.174 105.41 325.164L108.592 324.005L108.704 323.993C108.763 323.999 108.818 324.033 108.872 324.098C108.939 324.163 108.971 324.218 108.967 324.262L107.944 335.5L110.484 333.616C110.925 333.304 111.162 332.979 111.192 332.643C111.21 332.452 111.136 332.29 110.971 332.157C110.821 332.024 110.592 331.944 110.285 331.914C110.241 331.91 110.223 331.864 110.231 331.776C110.239 331.689 110.265 331.647 110.309 331.651C110.718 331.69 111.039 331.728 111.272 331.765L112.938 331.945L114.498 332.071C114.704 332.076 114.982 332.095 115.334 332.128C115.377 332.132 115.395 332.178 115.387 332.266C115.379 332.354 115.353 332.396 115.31 332.391C114.71 332.334 114.016 332.424 113.227 332.659C112.44 332.879 111.698 333.244 111.003 333.754L109.985 334.476L112.552 338.617C112.912 339.197 113.279 339.623 113.653 339.895C114.026 340.166 114.425 340.322 114.85 340.362Z" fill="#765AA7"/>
<path d="M126.535 337.016C126.563 337.01 126.598 337.033 126.639 337.084C126.694 337.132 126.71 337.174 126.687 337.209C126.273 337.811 125.824 338.285 125.341 338.631C124.855 338.962 124.296 339.197 123.665 339.335C122.775 339.53 121.968 339.51 121.243 339.277C120.53 339.027 119.935 338.623 119.458 338.065C118.992 337.49 118.683 336.836 118.529 336.103C118.352 335.254 118.397 334.432 118.666 333.636C118.949 332.838 119.414 332.157 120.062 331.594C120.721 331.014 121.496 330.627 122.386 330.433C123.233 330.248 123.927 330.299 124.468 330.587C125.005 330.861 125.343 331.328 125.482 331.99C125.563 332.378 125.525 332.59 125.367 332.624L124.183 332.883L120.143 333.81C120.164 334.121 120.21 334.45 120.282 334.795C120.544 336.046 121.04 336.983 121.771 337.605C122.514 338.21 123.401 338.4 124.435 338.174C124.808 338.093 125.178 337.959 125.545 337.774C125.908 337.574 126.225 337.332 126.496 337.047L126.535 337.016ZM121.701 331.033C121.227 331.137 120.854 331.399 120.582 331.819C120.31 332.24 120.165 332.767 120.148 333.403L123.494 332.605C123.342 332.021 123.116 331.589 122.817 331.308C122.518 331.028 122.146 330.936 121.701 331.033Z" fill="#765AA7"/>
<path d="M140.237 330.096C140.275 330.074 140.325 330.088 140.386 330.137C140.448 330.186 140.466 330.234 140.443 330.282L138.636 332.955L138.571 333.019C138.444 333.094 138.251 333.02 137.991 332.798C137.723 332.563 137.446 332.206 137.159 331.727C136.857 333.286 136.212 334.355 135.224 334.936C134.54 335.338 133.889 335.44 133.271 335.241C132.646 335.029 132.124 334.552 131.705 333.81L130.092 330.949C129.601 330.079 129.159 329.759 128.767 329.99C128.64 330.065 128.491 330.22 128.321 330.456L128.302 330.468C128.252 330.497 128.196 330.488 128.134 330.439C128.073 330.39 128.054 330.341 128.077 330.293L129.852 327.741L129.917 327.678C129.967 327.648 130.039 327.64 130.131 327.654C130.223 327.668 130.28 327.694 130.302 327.732L132.759 332.091C133.561 333.511 134.493 333.909 135.557 333.283C135.874 333.097 136.153 332.83 136.396 332.483C136.639 332.136 136.817 331.749 136.932 331.324L135.07 328.022C134.817 327.574 134.582 327.277 134.366 327.132C134.154 326.967 133.947 326.944 133.745 327.063C133.631 327.13 133.482 327.285 133.299 327.529L133.28 327.54C133.229 327.57 133.173 327.561 133.112 327.511C133.043 327.45 133.031 327.397 133.074 327.355L134.829 324.814C134.848 324.786 134.876 324.761 134.914 324.739C134.964 324.709 135.036 324.701 135.128 324.715C135.22 324.729 135.277 324.755 135.299 324.794L138.233 329.997C138.485 330.445 138.706 330.732 138.896 330.859C139.086 330.986 139.282 330.99 139.485 330.871C139.637 330.782 139.878 330.537 140.21 330.138L140.237 330.096Z" fill="#765AA7"/>
<path d="M148.538 324.123C148.083 324.662 147.559 325.112 146.967 325.471L150.211 328.325C150.542 328.616 150.817 328.791 151.038 328.848C151.259 328.905 151.487 328.852 151.722 328.687C151.968 328.532 152.286 328.224 152.674 327.763C152.693 327.741 152.736 327.759 152.802 327.817C152.868 327.875 152.892 327.916 152.873 327.938C152.532 328.342 152.261 328.652 152.06 328.867L150.935 330.166L150.141 331.141C150.01 331.319 149.822 331.554 149.575 331.846C149.547 331.88 149.499 331.868 149.433 331.809C149.367 331.751 149.348 331.705 149.377 331.671C149.613 331.391 149.756 331.154 149.803 330.961C149.862 330.778 149.833 330.595 149.716 330.415C149.609 330.223 149.39 329.981 149.059 329.69L141.365 322.919C141.001 322.599 140.698 322.411 140.457 322.355C140.225 322.288 140.024 322.355 139.853 322.558C139.692 322.749 139.542 323.086 139.403 323.57L139.374 323.604C139.336 323.649 139.286 323.663 139.223 323.647C139.149 323.62 139.11 323.587 139.107 323.545L139.941 320.404C139.949 320.372 139.972 320.333 140.01 320.288C140.114 320.165 140.313 320.144 140.608 320.228C140.892 320.301 141.22 320.482 141.592 320.771C141.516 319.197 141.853 317.967 142.601 317.08C142.999 316.608 143.49 316.277 144.074 316.086C144.658 315.895 145.281 315.886 145.943 316.058C146.615 316.218 147.26 316.571 147.878 317.114C148.749 317.881 149.305 318.703 149.546 319.58C149.796 320.445 149.816 321.276 149.607 322.07C149.387 322.855 149.03 323.539 148.538 324.123ZM142.604 318.785C142.121 319.358 141.899 320.111 141.937 321.045L141.97 321.074L145.925 324.554C146.439 324.537 146.897 324.45 147.298 324.294C147.708 324.127 148.093 323.83 148.453 323.403C148.927 322.842 149.064 322.189 148.865 321.446C148.654 320.693 148.074 319.9 147.126 319.065C146.254 318.298 145.411 317.908 144.595 317.895C143.78 317.882 143.116 318.178 142.604 318.785Z" fill="#765AA7"/>
<defs>
<clipPath id="clip0_188_5308">
<rect width="26.3048" height="23.8601" fill="white" transform="matrix(-0.709461 -0.704745 0.689726 -0.724071 92.0605 249.345)"/>
</clipPath>
<clipPath id="clip1_188_5308">
<rect width="24.5143" height="22.173" fill="white" transform="matrix(0.660122 0.751158 -0.737231 0.67564 174.668 139.654)"/>
</clipPath>
</defs>
</svg>
